<?xml version="1.0"?>
<svg width="640" height="480" xmlns="http://www.w3.org/2000/svg" xmlns:svg="http://www.w3.org/2000/svg">
 <!-- Created with SVG-edit - https://github.com/SVG-Edit/svgedit-->
 <g class="layer">
  <title>Layer 1</title>
  <text fill="#000000" font-family="serif" font-size="24" id="svg_30" stroke="#000000" stroke-dasharray="null" stroke-linecap="null" stroke-linejoin="null" stroke-width="0" text-anchor="middle" transform="matrix(0.449014 0 0 1 40.6785 0)" x="73.5" xml:space="preserve" y="161.5"/>
  <text fill="#000000" font-family="serif" font-size="24" id="svg_31" stroke="#000000" stroke-dasharray="null" stroke-linecap="null" stroke-linejoin="null" stroke-width="0" text-anchor="middle" transform="matrix(-2.79661 0 0 0.698646 653.669 62.5215)" x="177.5" xml:space="preserve" y="202.5"/>
  <text fill="#000000" font-family="serif" font-size="24" id="svg_34" stroke="#000000" stroke-dasharray="null" stroke-linecap="null" stroke-linejoin="null" stroke-width="0" text-anchor="middle" transform="matrix(-2.79661 0 0 0.698646 653.669 62.5215)" x="170.348484" xml:space="preserve" y="231.126798"/>
  <text fill="#000000" font-family="serif" font-size="24" id="svg_37" stroke="#000000" stroke-dasharray="null" stroke-linecap="null" stroke-linejoin="null" stroke-width="0" text-anchor="middle" transform="matrix(-2.79661 0 0 0.698646 653.669 62.5215)" x="163.196968" xml:space="preserve" y="259.753596"/>
  <text fill="#000000" font-family="serif" font-size="24" id="svg_40" stroke="#000000" stroke-dasharray="null" stroke-linecap="null" stroke-linejoin="null" stroke-width="0" text-anchor="middle" transform="matrix(-2.79661 0 0 0.698646 653.669 62.5215)" x="156.045452" xml:space="preserve" y="288.380395"/>
  <text fill="#000000" font-family="serif" font-size="24" id="svg_43" stroke="#000000" stroke-dasharray="null" stroke-linecap="null" stroke-linejoin="null" stroke-width="0" text-anchor="middle" transform="matrix(-2.79661 0 0 0.698646 653.669 62.5215)" x="148.893936" xml:space="preserve" y="317.007193"/>
  <text fill="#000000" font-family="serif" font-size="24" id="svg_46" stroke="#000000" stroke-dasharray="null" stroke-linecap="null" stroke-linejoin="null" stroke-width="0" text-anchor="middle" transform="matrix(-2.79661 0 0 0.698646 653.669 62.5215)" x="141.742421" xml:space="preserve" y="345.633991"/>
  <text fill="#000000" font-family="serif" font-size="24" id="svg_49" stroke="#000000" stroke-dasharray="null" stroke-linecap="null" stroke-linejoin="null" stroke-width="0" text-anchor="middle" transform="matrix(-2.79661 0 0 0.698646 653.669 62.5215)" x="134.590905" xml:space="preserve" y="374.260789"/>
  <text fill="#000000" font-family="serif" font-size="24" id="svg_52" stroke="#000000" stroke-dasharray="null" stroke-linecap="null" stroke-linejoin="null" stroke-width="0" text-anchor="middle" transform="matrix(-2.79661 0 0 0.698646 653.669 62.5215)" x="127.439389" xml:space="preserve" y="402.887587"/>
  <polygon fill="#000000" id="svg_65"/>
  <polygon fill="#000000" id="svg_66" points="92.5,236.5 92.5,236.5 92.5,236.5 92.5,236.5 92.5,236.5 92.5,236.5 92.5,236.5 92.5,236.5 92.5,236.5 92.5,236.5 92.5,236.5 92.5,236.5 92.5,236.5 92.5,236.5 92.5,236.5 92.5,236.5 92.5,236.5 92.5,236.5 92.5,236.5 92.5,236.5 92.5,236.5 92.5,236.5 92.5,236.5 92.5,236.5 92.5,236.5 92.5,236.5 92.5,236.5 92.5,236.5 92.5,236.5 92.5,236.5 92.5,236.5 92.5,236.5 92.5,236.5 92.5,236.5 92.5,236.5 92.5,236.5 92.5,236.5 92.5,236.5 92.5,236.5 92.5,236.5 92.5,236.5 92.5,236.5 92.5,236.5 92.5,236.5 92.5,236.5 92.5,236.5 92.5,236.5 92.5,236.5 92.5,236.5 92.5,236.5 92.5,236.5 92.5,236.5 92.5,236.5 92.5,236.5 92.5,236.5 92.5,236.5 92.5,236.5 92.5,236.5 92.5,236.5 92.5,236.5 " stroke-width="5"/>
  <text fill="#7f007f" font-family="serif" font-size="24" id="svg_85" stroke="#000000" stroke-dasharray="null" stroke-linecap="null" stroke-linejoin="null" stroke-width="0" text-anchor="middle" transform="matrix(2.6513 0 0 4.57692 -22.5086 -624.25)" x="112.298929" xml:space="preserve" y="165.147064">Curriculum vitae</text>
  <text fill="#7f007f" font-family="serif" font-size="24" id="svg_3" stroke="#000000" stroke-dasharray="null" stroke-linecap="null" stroke-linejoin="null" stroke-width="0" text-anchor="middle" x="143.5" xml:space="preserve" y="161.5">by Carlos Oliva</text>
 </g>
</svg>